<mxfile host="Electron" modified="2023-07-31T18:48:51.942Z" agent="Mozilla/5.0 (Macintosh; Intel Mac OS X 10_15_7) AppleWebKit/537.36 (KHTML, like Gecko) draw.io/21.6.5 Chrome/114.0.5735.243 Electron/25.3.1 Safari/537.36" etag="eLWoOp8wcd_UbwU3K3bN" version="21.6.5" type="device">
  <diagram name="Page-1" id="Pqn2j6jePajugsLytFiP">
    <mxGraphModel dx="1222" dy="869" grid="1" gridSize="10" guides="1" tooltips="1" connect="1" arrows="1" fold="1" page="1" pageScale="1" pageWidth="1169" pageHeight="827" background="#ffffff" math="0" shadow="0">
      <root>
        <mxCell id="0" />
        <mxCell id="1" parent="0" />
        <mxCell id="Uc1V2ZWnSnzchSxw7sYp-2" style="edgeStyle=orthogonalEdgeStyle;rounded=0;orthogonalLoop=1;jettySize=auto;html=1;exitX=0.5;exitY=1;exitDx=0;exitDy=0;endArrow=none;endFill=0;strokeColor=#990000;" parent="1" source="bkhKXYJbMKSQ_BPkJ9Bf-1" edge="1">
          <mxGeometry relative="1" as="geometry">
            <mxPoint x="120" y="401" as="targetPoint" />
            <Array as="points">
              <mxPoint x="120" y="401" />
            </Array>
          </mxGeometry>
        </mxCell>
        <mxCell id="bkhKXYJbMKSQ_BPkJ9Bf-1" value="&lt;p style=&quot;line-height: 110%;&quot;&gt;&lt;font style=&quot;font-size: 8px;&quot;&gt;OPERATOR (1-6)&lt;/font&gt;&lt;/p&gt;" style="shape=hexagon;perimeter=hexagonPerimeter2;whiteSpace=wrap;html=1;fixedSize=1;size=10;strokeColor=#000000;fontColor=#000000;labelBackgroundColor=none;fillColor=#CCFF99;" parent="1" vertex="1">
          <mxGeometry x="75" y="20" width="90" height="20" as="geometry" />
        </mxCell>
        <mxCell id="bkhKXYJbMKSQ_BPkJ9Bf-86" style="edgeStyle=orthogonalEdgeStyle;rounded=0;orthogonalLoop=1;jettySize=auto;html=1;exitX=0.5;exitY=1;exitDx=0;exitDy=0;entryX=0.25;entryY=0;entryDx=0;entryDy=0;strokeColor=#990000;fontColor=#000000;labelBackgroundColor=none;endArrow=none;endFill=0;startArrow=none;startFill=0;" parent="1" source="bkhKXYJbMKSQ_BPkJ9Bf-3" target="bkhKXYJbMKSQ_BPkJ9Bf-21" edge="1">
          <mxGeometry relative="1" as="geometry">
            <Array as="points">
              <mxPoint x="360" y="40" />
              <mxPoint x="360" y="70" />
              <mxPoint x="390" y="70" />
              <mxPoint x="390" y="100" />
            </Array>
          </mxGeometry>
        </mxCell>
        <mxCell id="bkhKXYJbMKSQ_BPkJ9Bf-3" value="&lt;p style=&quot;line-height: 110%;&quot;&gt;&lt;font style=&quot;font-size: 8px;&quot;&gt;VOICE (1-16)&lt;/font&gt;&lt;/p&gt;" style="shape=hexagon;perimeter=hexagonPerimeter2;whiteSpace=wrap;html=1;fixedSize=1;size=10;strokeColor=#000000;fontColor=#000000;labelBackgroundColor=none;fillColor=#FFFF99;" parent="1" vertex="1">
          <mxGeometry x="317.5" y="20" width="80" height="20" as="geometry" />
        </mxCell>
        <mxCell id="Uc1V2ZWnSnzchSxw7sYp-5" style="edgeStyle=orthogonalEdgeStyle;rounded=0;orthogonalLoop=1;jettySize=auto;html=1;exitX=0.5;exitY=1;exitDx=0;exitDy=0;entryX=0.174;entryY=0.451;entryDx=0;entryDy=0;strokeColor=#990000;endArrow=none;endFill=0;entryPerimeter=0;" parent="1" source="bkhKXYJbMKSQ_BPkJ9Bf-7" target="bkhKXYJbMKSQ_BPkJ9Bf-15" edge="1">
          <mxGeometry relative="1" as="geometry">
            <Array as="points">
              <mxPoint x="280" y="311" />
            </Array>
          </mxGeometry>
        </mxCell>
        <mxCell id="bkhKXYJbMKSQ_BPkJ9Bf-7" value="EG_PHASE&lt;br&gt;(1-4)&lt;br&gt;16 x 6" style="rounded=0;whiteSpace=wrap;html=1;fillColor=#FFCC99;fontColor=#000000;strokeColor=#000000;labelBackgroundColor=none;" parent="1" vertex="1">
          <mxGeometry x="240" y="100" width="80" height="60" as="geometry" />
        </mxCell>
        <mxCell id="bkhKXYJbMKSQ_BPkJ9Bf-14" value="&lt;font style=&quot;font-size: 18px;&quot;&gt;/&lt;/font&gt;&lt;br&gt;4 x&amp;nbsp;&lt;font style=&quot;font-size: 8px;&quot;&gt;[8]&lt;/font&gt;" style="edgeStyle=orthogonalEdgeStyle;rounded=0;orthogonalLoop=1;jettySize=auto;html=1;exitX=1;exitY=0.5;exitDx=0;exitDy=0;entryX=0.5;entryY=1;entryDx=0;entryDy=0;strokeWidth=4;endArrow=block;endFill=1;labelBackgroundColor=none;strokeColor=#000000;fontColor=#000000;" parent="1" source="bkhKXYJbMKSQ_BPkJ9Bf-8" target="bkhKXYJbMKSQ_BPkJ9Bf-11" edge="1">
          <mxGeometry x="-0.3334" y="-10" relative="1" as="geometry">
            <mxPoint x="145" y="40" as="sourcePoint" />
            <mxPoint x="145" y="220" as="targetPoint" />
            <mxPoint as="offset" />
          </mxGeometry>
        </mxCell>
        <mxCell id="bkhKXYJbMKSQ_BPkJ9Bf-11" value="" style="shape=trapezoid;perimeter=trapezoidPerimeter;whiteSpace=wrap;html=1;fixedSize=1;size=22.5;rotation=90;strokeColor=#000000;fontColor=#000000;labelBackgroundColor=none;fillColor=#FFFFFF;" parent="1" vertex="1">
          <mxGeometry x="238.13" y="221.88" width="80" height="36.25" as="geometry" />
        </mxCell>
        <mxCell id="B_mAP0IRxajXwq3ZstFW-13" value="" style="edgeStyle=orthogonalEdgeStyle;rounded=0;orthogonalLoop=1;jettySize=auto;html=1;" edge="1" parent="1" source="bkhKXYJbMKSQ_BPkJ9Bf-21" target="bkhKXYJbMKSQ_BPkJ9Bf-24">
          <mxGeometry relative="1" as="geometry" />
        </mxCell>
        <mxCell id="bkhKXYJbMKSQ_BPkJ9Bf-21" value="&lt;span style=&quot;font-family: Helvetica; font-size: 12px; font-style: normal; font-variant-ligatures: normal; font-variant-caps: normal; font-weight: 400; letter-spacing: normal; orphans: 2; text-align: center; text-indent: 0px; text-transform: none; widows: 2; word-spacing: 0px; -webkit-text-stroke-width: 0px; text-decoration-thickness: initial; text-decoration-style: initial; text-decoration-color: initial; float: none; display: inline !important;&quot;&gt;P_EGS_OP_LEVELS&lt;/span&gt;&lt;br style=&quot;border-color: rgb(0, 0, 0); font-family: Helvetica; font-size: 12px; font-style: normal; font-variant-ligatures: normal; font-variant-caps: normal; font-weight: 400; letter-spacing: normal; orphans: 2; text-align: center; text-indent: 0px; text-transform: none; widows: 2; word-spacing: 0px; -webkit-text-stroke-width: 0px; text-decoration-thickness: initial; text-decoration-style: initial; text-decoration-color: initial;&quot;&gt;&lt;font&gt;16 x 6&lt;/font&gt;" style="rounded=0;whiteSpace=wrap;html=1;fillColor=#99FFFF;fontColor=#000000;strokeColor=#000000;labelBackgroundColor=none;" parent="1" vertex="1">
          <mxGeometry x="340" y="100" width="130" height="40" as="geometry" />
        </mxCell>
        <mxCell id="bkhKXYJbMKSQ_BPkJ9Bf-23" value="&lt;font style=&quot;font-size: 19px;&quot;&gt;Envelope&lt;br&gt;Generator&lt;/font&gt;" style="rounded=0;whiteSpace=wrap;html=1;fillColor=#fa6800;fontColor=#000000;strokeColor=#000000;labelBackgroundColor=none;" parent="1" vertex="1">
          <mxGeometry x="510" y="280" width="120" height="90" as="geometry" />
        </mxCell>
        <mxCell id="bkhKXYJbMKSQ_BPkJ9Bf-24" value="&lt;p style=&quot;line-height: 110%;&quot;&gt;+&lt;br&gt;+&amp;nbsp; &amp;nbsp; &amp;nbsp;&amp;nbsp;&lt;br&gt;&lt;br&gt;&lt;/p&gt;" style="shape=sumEllipse;perimeter=ellipsePerimeter;whiteSpace=wrap;html=1;backgroundOutline=1;strokeColor=#000000;fontColor=#000000;labelBackgroundColor=none;fillColor=none;" parent="1" vertex="1">
          <mxGeometry x="380" y="220" width="40" height="40" as="geometry" />
        </mxCell>
        <mxCell id="bkhKXYJbMKSQ_BPkJ9Bf-25" value="&lt;font style=&quot;font-size: 8px;&quot;&gt;[8]&lt;/font&gt;" style="edgeStyle=orthogonalEdgeStyle;rounded=0;orthogonalLoop=1;jettySize=auto;html=1;entryX=0;entryY=0.5;entryDx=0;entryDy=0;exitX=0.5;exitY=0;exitDx=0;exitDy=0;strokeColor=#000000;fontColor=#000000;labelBackgroundColor=none;" parent="1" source="bkhKXYJbMKSQ_BPkJ9Bf-11" target="bkhKXYJbMKSQ_BPkJ9Bf-24" edge="1">
          <mxGeometry x="0.0447" y="10" relative="1" as="geometry">
            <mxPoint x="288" y="170" as="sourcePoint" />
            <mxPoint x="288" y="321" as="targetPoint" />
            <Array as="points" />
            <mxPoint as="offset" />
          </mxGeometry>
        </mxCell>
        <mxCell id="bkhKXYJbMKSQ_BPkJ9Bf-26" style="edgeStyle=orthogonalEdgeStyle;rounded=0;orthogonalLoop=1;jettySize=auto;html=1;exitX=0.5;exitY=1;exitDx=0;exitDy=0;strokeColor=#000000;fontColor=#000000;labelBackgroundColor=none;" parent="1" source="bkhKXYJbMKSQ_BPkJ9Bf-21" target="bkhKXYJbMKSQ_BPkJ9Bf-24" edge="1">
          <mxGeometry relative="1" as="geometry">
            <mxPoint x="306" y="250" as="sourcePoint" />
            <mxPoint x="360" y="250" as="targetPoint" />
            <Array as="points">
              <mxPoint x="400" y="140" />
            </Array>
          </mxGeometry>
        </mxCell>
        <mxCell id="B_mAP0IRxajXwq3ZstFW-12" value="&lt;font color=&quot;#000000&quot; style=&quot;font-size: 8px;&quot;&gt;[8]&lt;/font&gt;" style="edgeLabel;html=1;align=center;verticalAlign=middle;resizable=0;points=[];labelBackgroundColor=none;" vertex="1" connectable="0" parent="bkhKXYJbMKSQ_BPkJ9Bf-26">
          <mxGeometry x="0.1648" relative="1" as="geometry">
            <mxPoint x="10" y="-15" as="offset" />
          </mxGeometry>
        </mxCell>
        <mxCell id="bkhKXYJbMKSQ_BPkJ9Bf-28" value="Target&lt;br&gt;Level" style="edgeStyle=orthogonalEdgeStyle;rounded=0;orthogonalLoop=1;jettySize=auto;html=1;entryX=0;entryY=0.25;entryDx=0;entryDy=0;exitX=1;exitY=0.5;exitDx=0;exitDy=0;strokeColor=#000000;fontColor=#000000;labelBackgroundColor=none;" parent="1" source="bkhKXYJbMKSQ_BPkJ9Bf-24" target="bkhKXYJbMKSQ_BPkJ9Bf-23" edge="1">
          <mxGeometry x="-0.2793" y="25" relative="1" as="geometry">
            <mxPoint x="306" y="250" as="sourcePoint" />
            <mxPoint x="360" y="250" as="targetPoint" />
            <Array as="points">
              <mxPoint x="460" y="240" />
              <mxPoint x="460" y="302" />
            </Array>
            <mxPoint as="offset" />
          </mxGeometry>
        </mxCell>
        <mxCell id="bkhKXYJbMKSQ_BPkJ9Bf-29" value="&lt;font style=&quot;font-size: 18px;&quot;&gt;/&lt;/font&gt;&lt;br&gt;4 x &lt;font style=&quot;font-size: 8px;&quot;&gt;[8]&lt;/font&gt;" style="edgeStyle=orthogonalEdgeStyle;rounded=0;orthogonalLoop=1;jettySize=auto;html=1;entryX=0.5;entryY=1;entryDx=0;entryDy=0;strokeWidth=4;endArrow=block;endFill=1;labelBackgroundColor=none;strokeColor=#000000;fontColor=#000000;" parent="1" target="bkhKXYJbMKSQ_BPkJ9Bf-15" edge="1">
          <mxGeometry x="-0.3436" y="-10" relative="1" as="geometry">
            <mxPoint x="200" y="340" as="sourcePoint" />
            <mxPoint x="270" y="250" as="targetPoint" />
            <mxPoint as="offset" />
            <Array as="points">
              <mxPoint x="230" y="340" />
              <mxPoint x="230" y="340" />
            </Array>
          </mxGeometry>
        </mxCell>
        <mxCell id="bkhKXYJbMKSQ_BPkJ9Bf-30" value="&lt;font&gt;P_EGS_AMP_MOD&lt;/font&gt;" style="rounded=0;whiteSpace=wrap;html=1;fillColor=#99FFFF;fontColor=#000000;strokeColor=#000000;labelBackgroundColor=none;" parent="1" vertex="1">
          <mxGeometry x="780" y="220" width="140" height="30" as="geometry" />
        </mxCell>
        <mxCell id="bkhKXYJbMKSQ_BPkJ9Bf-32" style="edgeStyle=orthogonalEdgeStyle;rounded=0;orthogonalLoop=1;jettySize=auto;html=1;exitX=0.5;exitY=1;exitDx=0;exitDy=0;entryX=0.5;entryY=0;entryDx=0;entryDy=0;strokeColor=#000000;fontColor=#000000;labelBackgroundColor=none;" parent="1" source="bkhKXYJbMKSQ_BPkJ9Bf-30" target="bkhKXYJbMKSQ_BPkJ9Bf-38" edge="1">
          <mxGeometry relative="1" as="geometry">
            <mxPoint x="575" as="sourcePoint" />
            <mxPoint x="471" y="70" as="targetPoint" />
            <Array as="points">
              <mxPoint x="850" y="280" />
              <mxPoint x="850" y="280" />
            </Array>
          </mxGeometry>
        </mxCell>
        <mxCell id="bkhKXYJbMKSQ_BPkJ9Bf-34" value="&lt;span style=&quot;font-family: Helvetica; font-size: 12px; font-style: normal; font-variant-ligatures: normal; font-variant-caps: normal; font-weight: 400; letter-spacing: normal; orphans: 2; text-align: center; text-indent: 0px; text-transform: none; widows: 2; word-spacing: 0px; -webkit-text-stroke-width: 0px; text-decoration-thickness: initial; text-decoration-style: initial; text-decoration-color: initial; float: none; display: inline !important;&quot;&gt;P_EGS_OP_SENS_SCALING&lt;/span&gt;&lt;br style=&quot;border-color: rgb(0, 0, 0); font-family: Helvetica; font-size: 12px; font-style: normal; font-variant-ligatures: normal; font-variant-caps: normal; font-weight: 400; letter-spacing: normal; orphans: 2; text-align: center; text-indent: 0px; text-transform: none; widows: 2; word-spacing: 0px; -webkit-text-stroke-width: 0px; text-decoration-thickness: initial; text-decoration-style: initial; text-decoration-color: initial;&quot;&gt;&lt;span style=&quot;font-family: Helvetica; font-size: 12px; font-style: normal; font-variant-ligatures: normal; font-variant-caps: normal; font-weight: 400; letter-spacing: normal; orphans: 2; text-align: center; text-indent: 0px; text-transform: none; widows: 2; word-spacing: 0px; -webkit-text-stroke-width: 0px; text-decoration-thickness: initial; text-decoration-style: initial; text-decoration-color: initial; float: none; display: inline !important;&quot;&gt;x 6&lt;/span&gt;" style="rounded=0;whiteSpace=wrap;html=1;fillColor=#CC99FF;fontColor=#000000;strokeColor=#000000;labelBackgroundColor=none;" parent="1" vertex="1">
          <mxGeometry x="40" y="401" width="180" height="80" as="geometry" />
        </mxCell>
        <mxCell id="bkhKXYJbMKSQ_BPkJ9Bf-35" value="&lt;p style=&quot;line-height: 110%;&quot;&gt;&lt;br&gt;+&amp;nbsp; &amp;nbsp; &amp;nbsp; &amp;nbsp;&lt;br&gt;+&lt;br&gt;&lt;/p&gt;" style="shape=sumEllipse;perimeter=ellipsePerimeter;whiteSpace=wrap;html=1;backgroundOutline=1;strokeColor=#000000;fontColor=#000000;labelBackgroundColor=none;fillColor=none;" parent="1" vertex="1">
          <mxGeometry x="380" y="320" width="40" height="40" as="geometry" />
        </mxCell>
        <mxCell id="bkhKXYJbMKSQ_BPkJ9Bf-36" value="Rate" style="edgeStyle=orthogonalEdgeStyle;rounded=0;orthogonalLoop=1;jettySize=auto;html=1;entryX=0.009;entryY=0.67;entryDx=0;entryDy=0;exitX=1;exitY=0.5;exitDx=0;exitDy=0;entryPerimeter=0;strokeColor=#000000;fontColor=#000000;labelBackgroundColor=none;" parent="1" source="bkhKXYJbMKSQ_BPkJ9Bf-35" target="bkhKXYJbMKSQ_BPkJ9Bf-23" edge="1">
          <mxGeometry x="-0.4076" y="10" relative="1" as="geometry">
            <mxPoint x="400" y="250" as="sourcePoint" />
            <mxPoint x="500" y="313" as="targetPoint" />
            <Array as="points">
              <mxPoint x="489" y="340" />
            </Array>
            <mxPoint as="offset" />
          </mxGeometry>
        </mxCell>
        <mxCell id="bkhKXYJbMKSQ_BPkJ9Bf-37" value="&lt;font style=&quot;font-size: 8px;&quot;&gt;[8]&lt;/font&gt;" style="edgeStyle=orthogonalEdgeStyle;rounded=0;orthogonalLoop=1;jettySize=auto;html=1;entryX=0;entryY=0.5;entryDx=0;entryDy=0;exitX=0.5;exitY=0;exitDx=0;exitDy=0;strokeColor=#000000;fontColor=#000000;labelBackgroundColor=none;" parent="1" source="bkhKXYJbMKSQ_BPkJ9Bf-15" target="bkhKXYJbMKSQ_BPkJ9Bf-35" edge="1">
          <mxGeometry x="-0.0973" y="10" relative="1" as="geometry">
            <mxPoint x="306" y="250" as="sourcePoint" />
            <mxPoint x="360" y="250" as="targetPoint" />
            <Array as="points" />
            <mxPoint as="offset" />
          </mxGeometry>
        </mxCell>
        <mxCell id="bkhKXYJbMKSQ_BPkJ9Bf-38" value="&lt;p style=&quot;line-height: 110%;&quot;&gt;+&lt;br&gt;+&amp;nbsp; &amp;nbsp; &amp;nbsp;&amp;nbsp;&lt;br&gt;+&lt;br&gt;&lt;/p&gt;" style="shape=sumEllipse;perimeter=ellipsePerimeter;whiteSpace=wrap;html=1;backgroundOutline=1;strokeColor=#000000;fontColor=#000000;labelBackgroundColor=none;fillColor=none;" parent="1" vertex="1">
          <mxGeometry x="830" y="305" width="40" height="40" as="geometry" />
        </mxCell>
        <mxCell id="bkhKXYJbMKSQ_BPkJ9Bf-39" value="Amp Mod Sense &lt;font style=&quot;font-size: 8px;&quot;&gt;[5]&lt;/font&gt;" style="edgeStyle=orthogonalEdgeStyle;rounded=0;orthogonalLoop=1;jettySize=auto;html=1;entryX=0.5;entryY=1;entryDx=0;entryDy=0;exitX=1;exitY=0.75;exitDx=0;exitDy=0;strokeColor=#000000;fontColor=#000000;labelBackgroundColor=none;" parent="1" source="bkhKXYJbMKSQ_BPkJ9Bf-34" target="bkhKXYJbMKSQ_BPkJ9Bf-38" edge="1">
          <mxGeometry x="-0.8017" y="10" relative="1" as="geometry">
            <mxPoint x="400" y="350" as="sourcePoint" />
            <mxPoint x="501" y="350" as="targetPoint" />
            <Array as="points">
              <mxPoint x="850" y="460" />
            </Array>
            <mxPoint as="offset" />
          </mxGeometry>
        </mxCell>
        <mxCell id="bkhKXYJbMKSQ_BPkJ9Bf-41" value="&lt;font style=&quot;font-size: 8px;&quot;&gt;[12]&lt;/font&gt;" style="edgeStyle=orthogonalEdgeStyle;rounded=0;orthogonalLoop=1;jettySize=auto;html=1;exitX=1;exitY=0.5;exitDx=0;exitDy=0;entryX=0;entryY=0.5;entryDx=0;entryDy=0;strokeColor=#000000;fontColor=#000000;labelBackgroundColor=none;" parent="1" source="bkhKXYJbMKSQ_BPkJ9Bf-38" target="bkhKXYJbMKSQ_BPkJ9Bf-88" edge="1">
          <mxGeometry x="-0.039" y="15" relative="1" as="geometry">
            <mxPoint x="860" y="325" as="sourcePoint" />
            <mxPoint x="960" y="325" as="targetPoint" />
            <Array as="points" />
            <mxPoint as="offset" />
          </mxGeometry>
        </mxCell>
        <mxCell id="bkhKXYJbMKSQ_BPkJ9Bf-42" value="&lt;span style=&quot;font-family: Helvetica; font-size: 12px; font-style: normal; font-variant-ligatures: normal; font-variant-caps: normal; font-weight: 400; letter-spacing: normal; orphans: 2; text-align: center; text-indent: 0px; text-transform: none; widows: 2; word-spacing: 0px; -webkit-text-stroke-width: 0px; text-decoration-thickness: initial; text-decoration-style: initial; text-decoration-color: initial; float: none; display: inline !important;&quot;&gt;P_EGS_VOICE_PITCH&lt;/span&gt;&lt;br style=&quot;border-color: rgb(0, 0, 0); font-family: Helvetica; font-size: 12px; font-style: normal; font-variant-ligatures: normal; font-variant-caps: normal; font-weight: 400; letter-spacing: normal; orphans: 2; text-align: center; text-indent: 0px; text-transform: none; widows: 2; word-spacing: 0px; -webkit-text-stroke-width: 0px; text-decoration-thickness: initial; text-decoration-style: initial; text-decoration-color: initial;&quot;&gt;&lt;font&gt;x 16&lt;/font&gt;" style="rounded=0;whiteSpace=wrap;html=1;fillColor=#99FFFF;fontColor=#000000;strokeColor=#000000;labelBackgroundColor=none;" parent="1" vertex="1">
          <mxGeometry x="40" y="550" width="160" height="40" as="geometry" />
        </mxCell>
        <mxCell id="bkhKXYJbMKSQ_BPkJ9Bf-43" value="&lt;p style=&quot;line-height: 110%;&quot;&gt;&amp;nbsp;&lt;br&gt;+&amp;nbsp; &amp;nbsp; &amp;nbsp; &amp;nbsp;&lt;br&gt;+&lt;br&gt;&lt;/p&gt;" style="shape=sumEllipse;perimeter=ellipsePerimeter;whiteSpace=wrap;html=1;backgroundOutline=1;strokeColor=#000000;fontColor=#000000;labelBackgroundColor=none;fillColor=none;" parent="1" vertex="1">
          <mxGeometry x="380" y="401" width="40" height="40" as="geometry" />
        </mxCell>
        <mxCell id="bkhKXYJbMKSQ_BPkJ9Bf-44" style="edgeStyle=orthogonalEdgeStyle;rounded=0;orthogonalLoop=1;jettySize=auto;html=1;entryX=0.5;entryY=1;entryDx=0;entryDy=0;exitX=0.5;exitY=0;exitDx=0;exitDy=0;strokeColor=#000000;fontColor=#000000;labelBackgroundColor=none;" parent="1" source="bkhKXYJbMKSQ_BPkJ9Bf-43" target="bkhKXYJbMKSQ_BPkJ9Bf-35" edge="1">
          <mxGeometry relative="1" as="geometry">
            <mxPoint x="335" y="350" as="sourcePoint" />
            <mxPoint x="390" y="350" as="targetPoint" />
            <Array as="points" />
          </mxGeometry>
        </mxCell>
        <mxCell id="bkhKXYJbMKSQ_BPkJ9Bf-45" value="Rate Scaling &lt;font style=&quot;font-size: 8px;&quot;&gt;[3]&lt;/font&gt;" style="edgeStyle=orthogonalEdgeStyle;rounded=0;orthogonalLoop=1;jettySize=auto;html=1;entryX=0;entryY=0.5;entryDx=0;entryDy=0;exitX=1;exitY=0.25;exitDx=0;exitDy=0;strokeColor=#000000;fontColor=#000000;labelBackgroundColor=none;" parent="1" source="bkhKXYJbMKSQ_BPkJ9Bf-34" target="bkhKXYJbMKSQ_BPkJ9Bf-43" edge="1">
          <mxGeometry x="-0.0769" y="10" relative="1" as="geometry">
            <mxPoint x="230" y="461" as="sourcePoint" />
            <mxPoint x="710" y="346" as="targetPoint" />
            <Array as="points">
              <mxPoint x="350" y="421" />
            </Array>
            <mxPoint as="offset" />
          </mxGeometry>
        </mxCell>
        <mxCell id="bkhKXYJbMKSQ_BPkJ9Bf-46" value="" style="edgeStyle=orthogonalEdgeStyle;rounded=0;orthogonalLoop=1;jettySize=auto;html=1;entryX=0.5;entryY=1;entryDx=0;entryDy=0;exitX=0.5;exitY=0;exitDx=0;exitDy=0;strokeColor=#000000;fontColor=#000000;labelBackgroundColor=none;" parent="1" source="bkhKXYJbMKSQ_BPkJ9Bf-61" target="bkhKXYJbMKSQ_BPkJ9Bf-43" edge="1">
          <mxGeometry x="-0.0769" y="10" relative="1" as="geometry">
            <mxPoint x="260" y="440" as="sourcePoint" />
            <mxPoint x="390" y="440" as="targetPoint" />
            <Array as="points" />
            <mxPoint as="offset" />
          </mxGeometry>
        </mxCell>
        <mxCell id="bkhKXYJbMKSQ_BPkJ9Bf-51" value="&lt;font&gt;P_EGS_PITCH_MOD&lt;/font&gt;" style="rounded=0;whiteSpace=wrap;html=1;fillColor=#99FFFF;fontColor=#000000;strokeColor=#000000;labelBackgroundColor=none;" parent="1" vertex="1">
          <mxGeometry x="430" y="740" width="160" height="30" as="geometry" />
        </mxCell>
        <mxCell id="bkhKXYJbMKSQ_BPkJ9Bf-52" value="&lt;p style=&quot;line-height: 110%;&quot;&gt;&amp;nbsp;&lt;br&gt;+&amp;nbsp; &amp;nbsp; &amp;nbsp;&amp;nbsp;&lt;br&gt;+&lt;br&gt;&lt;/p&gt;" style="shape=sumEllipse;perimeter=ellipsePerimeter;whiteSpace=wrap;html=1;backgroundOutline=1;strokeColor=#000000;fontColor=#000000;labelBackgroundColor=none;fillColor=none;" parent="1" vertex="1">
          <mxGeometry x="490" y="650" width="40" height="40" as="geometry" />
        </mxCell>
        <mxCell id="bkhKXYJbMKSQ_BPkJ9Bf-53" style="edgeStyle=orthogonalEdgeStyle;rounded=0;orthogonalLoop=1;jettySize=auto;html=1;exitX=0.5;exitY=0;exitDx=0;exitDy=0;entryX=0.5;entryY=1;entryDx=0;entryDy=0;strokeColor=#000000;fontColor=#000000;labelBackgroundColor=none;" parent="1" target="bkhKXYJbMKSQ_BPkJ9Bf-52" edge="1">
          <mxGeometry relative="1" as="geometry">
            <mxPoint x="510" y="740" as="sourcePoint" />
            <mxPoint x="730" y="415" as="targetPoint" />
            <Array as="points">
              <mxPoint x="510" y="690" />
            </Array>
          </mxGeometry>
        </mxCell>
        <mxCell id="bkhKXYJbMKSQ_BPkJ9Bf-54" value="" style="edgeStyle=orthogonalEdgeStyle;rounded=0;orthogonalLoop=1;jettySize=auto;html=1;entryX=0.5;entryY=0;entryDx=0;entryDy=0;strokeColor=#000000;fontColor=#000000;labelBackgroundColor=none;" parent="1" source="bkhKXYJbMKSQ_BPkJ9Bf-96" target="bkhKXYJbMKSQ_BPkJ9Bf-49" edge="1">
          <mxGeometry x="-0.0769" y="10" relative="1" as="geometry">
            <mxPoint x="230" y="580" as="sourcePoint" />
            <mxPoint x="410" y="470" as="targetPoint" />
            <Array as="points">
              <mxPoint x="400" y="580" />
            </Array>
            <mxPoint as="offset" />
          </mxGeometry>
        </mxCell>
        <mxCell id="bkhKXYJbMKSQ_BPkJ9Bf-55" value="&lt;span style=&quot;font-family: Helvetica; font-size: 12px; font-style: normal; font-variant-ligatures: normal; font-variant-caps: normal; font-weight: 400; letter-spacing: normal; orphans: 2; text-align: center; text-indent: 0px; text-transform: none; widows: 2; word-spacing: 0px; -webkit-text-stroke-width: 0px; text-decoration-thickness: initial; text-decoration-style: initial; text-decoration-color: initial; float: none; display: inline !important;&quot;&gt;P_EGS_OP_DETUNE&lt;/span&gt;&lt;br style=&quot;border-color: rgb(0, 0, 0); font-family: Helvetica; font-size: 12px; font-style: normal; font-variant-ligatures: normal; font-variant-caps: normal; font-weight: 400; letter-spacing: normal; orphans: 2; text-align: center; text-indent: 0px; text-transform: none; widows: 2; word-spacing: 0px; -webkit-text-stroke-width: 0px; text-decoration-thickness: initial; text-decoration-style: initial; text-decoration-color: initial;&quot;&gt;&lt;font&gt;x 6&lt;/font&gt;" style="rounded=0;whiteSpace=wrap;html=1;fillColor=#CC99FF;fontColor=#000000;strokeColor=#000000;labelBackgroundColor=none;" parent="1" vertex="1">
          <mxGeometry x="40" y="720" width="160" height="40" as="geometry" />
        </mxCell>
        <mxCell id="bkhKXYJbMKSQ_BPkJ9Bf-56" value="Ratio or Fixed&lt;br&gt;Pitch &lt;font style=&quot;font-size: 8px;&quot;&gt;[14]&lt;/font&gt;" style="edgeStyle=orthogonalEdgeStyle;rounded=0;orthogonalLoop=1;jettySize=auto;html=1;exitX=1;exitY=0.5;exitDx=0;exitDy=0;strokeColor=#000000;fontColor=#000000;labelBackgroundColor=none;" parent="1" source="bkhKXYJbMKSQ_BPkJ9Bf-47" target="bkhKXYJbMKSQ_BPkJ9Bf-49" edge="1">
          <mxGeometry x="0.1067" y="-20" relative="1" as="geometry">
            <mxPoint x="200" y="670" as="sourcePoint" />
            <mxPoint x="450" y="610" as="targetPoint" />
            <Array as="points">
              <mxPoint x="200" y="670" />
            </Array>
            <mxPoint as="offset" />
          </mxGeometry>
        </mxCell>
        <mxCell id="bkhKXYJbMKSQ_BPkJ9Bf-49" value="&lt;p style=&quot;line-height: 110%;&quot;&gt;&lt;font style=&quot;font-size: 12px;&quot;&gt;+&lt;br&gt;+&amp;nbsp; &amp;nbsp; &amp;nbsp; &amp;nbsp;&lt;br&gt;+&lt;/font&gt;&lt;/p&gt;" style="shape=sumEllipse;perimeter=ellipsePerimeter;whiteSpace=wrap;html=1;backgroundOutline=1;strokeColor=#000000;fontColor=#000000;labelBackgroundColor=none;fillColor=none;" parent="1" vertex="1">
          <mxGeometry x="380" y="650" width="40" height="40" as="geometry" />
        </mxCell>
        <mxCell id="bkhKXYJbMKSQ_BPkJ9Bf-57" value="&lt;font style=&quot;font-size: 8px;&quot;&gt;[4]&lt;/font&gt;" style="edgeStyle=orthogonalEdgeStyle;rounded=0;orthogonalLoop=1;jettySize=auto;html=1;exitX=1;exitY=0.5;exitDx=0;exitDy=0;strokeColor=#000000;fontColor=#000000;labelBackgroundColor=none;" parent="1" source="bkhKXYJbMKSQ_BPkJ9Bf-55" target="bkhKXYJbMKSQ_BPkJ9Bf-49" edge="1">
          <mxGeometry x="-0.0769" y="10" relative="1" as="geometry">
            <mxPoint x="210" y="680" as="sourcePoint" />
            <mxPoint x="360" y="680" as="targetPoint" />
            <Array as="points" />
            <mxPoint as="offset" />
          </mxGeometry>
        </mxCell>
        <mxCell id="bkhKXYJbMKSQ_BPkJ9Bf-58" value="&lt;font style=&quot;font-size: 8px;&quot;&gt;[14]&lt;/font&gt;" style="edgeStyle=orthogonalEdgeStyle;rounded=0;orthogonalLoop=1;jettySize=auto;html=1;exitX=1;exitY=0.5;exitDx=0;exitDy=0;entryX=0;entryY=0.5;entryDx=0;entryDy=0;strokeColor=#000000;fontColor=#000000;labelBackgroundColor=none;" parent="1" source="bkhKXYJbMKSQ_BPkJ9Bf-49" target="bkhKXYJbMKSQ_BPkJ9Bf-52" edge="1">
          <mxGeometry x="0.0405" y="10" relative="1" as="geometry">
            <mxPoint x="730" y="355" as="sourcePoint" />
            <mxPoint x="460" y="670" as="targetPoint" />
            <Array as="points" />
            <mxPoint as="offset" />
          </mxGeometry>
        </mxCell>
        <mxCell id="bkhKXYJbMKSQ_BPkJ9Bf-60" value="&lt;font style=&quot;font-size: 8px;&quot;&gt;[14]&lt;/font&gt;" style="edgeStyle=orthogonalEdgeStyle;rounded=0;orthogonalLoop=1;jettySize=auto;html=1;exitX=1;exitY=0.5;exitDx=0;exitDy=0;entryX=0;entryY=0.5;entryDx=0;entryDy=0;strokeColor=#000000;fontColor=#000000;labelBackgroundColor=none;" parent="1" source="bkhKXYJbMKSQ_BPkJ9Bf-52" target="bkhKXYJbMKSQ_BPkJ9Bf-89" edge="1">
          <mxGeometry x="0.0551" y="10" relative="1" as="geometry">
            <mxPoint x="660" y="345" as="sourcePoint" />
            <mxPoint x="740" y="670" as="targetPoint" />
            <Array as="points" />
            <mxPoint as="offset" />
          </mxGeometry>
        </mxCell>
        <mxCell id="bkhKXYJbMKSQ_BPkJ9Bf-63" value="&lt;font style=&quot;font-size: 8px;&quot;&gt;[14]&lt;/font&gt;" style="edgeStyle=orthogonalEdgeStyle;rounded=0;orthogonalLoop=1;jettySize=auto;html=1;entryX=0;entryY=0.5;entryDx=0;entryDy=0;endArrow=none;endFill=0;exitX=1;exitY=0.5;exitDx=0;exitDy=0;strokeColor=#000000;fontColor=#000000;labelBackgroundColor=none;" parent="1" source="bkhKXYJbMKSQ_BPkJ9Bf-42" target="bkhKXYJbMKSQ_BPkJ9Bf-61" edge="1">
          <mxGeometry x="-0.0769" y="10" relative="1" as="geometry">
            <mxPoint x="200" y="580" as="sourcePoint" />
            <mxPoint x="370" y="640" as="targetPoint" />
            <Array as="points" />
            <mxPoint as="offset" />
          </mxGeometry>
        </mxCell>
        <mxCell id="bkhKXYJbMKSQ_BPkJ9Bf-61" value="" style="ellipse;whiteSpace=wrap;html=1;aspect=fixed;fillColor=#000000;strokeColor=#000000;fontColor=#000000;labelBackgroundColor=none;" parent="1" vertex="1">
          <mxGeometry x="397.5" y="567.5" width="5" height="5" as="geometry" />
        </mxCell>
        <mxCell id="bkhKXYJbMKSQ_BPkJ9Bf-64" value="&lt;p style=&quot;line-height: 110%;&quot;&gt;&lt;font style=&quot;font-size: 8px;&quot;&gt;VOICE (1-16)&lt;/font&gt;&lt;/p&gt;" style="shape=hexagon;perimeter=hexagonPerimeter2;whiteSpace=wrap;html=1;fixedSize=1;size=10;strokeColor=#000000;fontColor=#000000;labelBackgroundColor=none;fillColor=#FFFF99;" parent="1" vertex="1">
          <mxGeometry x="80" y="510" width="80" height="20" as="geometry" />
        </mxCell>
        <mxCell id="bkhKXYJbMKSQ_BPkJ9Bf-65" value="YM21290 EGS" style="text;strokeColor=none;fillColor=none;html=1;fontSize=24;fontStyle=1;verticalAlign=middle;align=center;fontColor=#000000;labelBackgroundColor=none;" parent="1" vertex="1">
          <mxGeometry x="960" y="760" width="177.5" height="40" as="geometry" />
        </mxCell>
        <mxCell id="bkhKXYJbMKSQ_BPkJ9Bf-66" value="&lt;p style=&quot;line-height: 110%;&quot;&gt;&lt;font style=&quot;font-size: 8px;&quot;&gt;OPERATOR (6-1)&lt;/font&gt;&lt;/p&gt;" style="shape=hexagon;perimeter=hexagonPerimeter2;whiteSpace=wrap;html=1;fixedSize=1;size=10;strokeColor=#000000;fontColor=#000000;labelBackgroundColor=none;fillColor=#CCFF99;" parent="1" vertex="1">
          <mxGeometry x="425" y="20" width="90" height="20" as="geometry" />
        </mxCell>
        <mxCell id="bkhKXYJbMKSQ_BPkJ9Bf-67" style="edgeStyle=orthogonalEdgeStyle;rounded=0;orthogonalLoop=1;jettySize=auto;html=1;exitX=0.5;exitY=1;exitDx=0;exitDy=0;entryX=0.75;entryY=0;entryDx=0;entryDy=0;strokeColor=#990000;fontColor=#000000;labelBackgroundColor=none;endArrow=none;endFill=0;startArrow=none;startFill=0;" parent="1" source="bkhKXYJbMKSQ_BPkJ9Bf-66" target="bkhKXYJbMKSQ_BPkJ9Bf-21" edge="1">
          <mxGeometry relative="1" as="geometry">
            <mxPoint x="105" y="40" as="sourcePoint" />
            <mxPoint x="256" y="110" as="targetPoint" />
            <Array as="points">
              <mxPoint x="470" y="70" />
              <mxPoint x="438" y="70" />
            </Array>
          </mxGeometry>
        </mxCell>
        <mxCell id="bkhKXYJbMKSQ_BPkJ9Bf-95" style="edgeStyle=orthogonalEdgeStyle;rounded=0;orthogonalLoop=1;jettySize=auto;html=1;exitX=0.5;exitY=1;exitDx=0;exitDy=0;entryX=0.5;entryY=0;entryDx=0;entryDy=0;strokeColor=#000000;fontColor=#000000;labelBackgroundColor=none;" parent="1" source="bkhKXYJbMKSQ_BPkJ9Bf-68" target="bkhKXYJbMKSQ_BPkJ9Bf-91" edge="1">
          <mxGeometry relative="1" as="geometry" />
        </mxCell>
        <mxCell id="bkhKXYJbMKSQ_BPkJ9Bf-68" value="&lt;font&gt;P_EGS_VOICE_EVENTS&lt;/font&gt;" style="rounded=0;whiteSpace=wrap;html=1;fillColor=#99FFFF;fontColor=#000000;strokeColor=#000000;labelBackgroundColor=none;" parent="1" vertex="1">
          <mxGeometry x="520" y="80" width="150" height="30" as="geometry" />
        </mxCell>
        <mxCell id="bkhKXYJbMKSQ_BPkJ9Bf-69" style="edgeStyle=orthogonalEdgeStyle;rounded=0;orthogonalLoop=1;jettySize=auto;html=1;exitX=0.25;exitY=1;exitDx=0;exitDy=0;entryX=0.5;entryY=0;entryDx=0;entryDy=0;strokeColor=#000000;fontColor=#000000;labelBackgroundColor=none;" parent="1" source="bkhKXYJbMKSQ_BPkJ9Bf-91" target="bkhKXYJbMKSQ_BPkJ9Bf-23" edge="1">
          <mxGeometry relative="1" as="geometry">
            <mxPoint x="450" y="150" as="sourcePoint" />
            <mxPoint x="580" y="280" as="targetPoint" />
            <Array as="points">
              <mxPoint x="570" y="175" />
            </Array>
          </mxGeometry>
        </mxCell>
        <mxCell id="bkhKXYJbMKSQ_BPkJ9Bf-70" value="&lt;p style=&quot;line-height: 110%;&quot;&gt;&lt;font style=&quot;font-size: 8px;&quot;&gt;OPERATOR (6-1)&lt;/font&gt;&lt;/p&gt;" style="shape=hexagon;perimeter=hexagonPerimeter2;whiteSpace=wrap;html=1;fixedSize=1;size=10;strokeColor=#000000;fontColor=#000000;labelBackgroundColor=none;fillColor=#CCFF99;" parent="1" vertex="1">
          <mxGeometry x="75" y="610" width="90" height="20" as="geometry" />
        </mxCell>
        <mxCell id="bkhKXYJbMKSQ_BPkJ9Bf-9" value="&lt;span style=&quot;font-family: Helvetica; font-size: 12px; font-style: normal; font-variant-ligatures: normal; font-variant-caps: normal; font-weight: 400; letter-spacing: normal; orphans: 2; text-align: center; text-indent: 0px; text-transform: none; widows: 2; word-spacing: 0px; -webkit-text-stroke-width: 0px; text-decoration-thickness: initial; text-decoration-style: initial; text-decoration-color: initial; float: none; display: inline !important;&quot;&gt;P_EGS_OP_EG_RATES&lt;/span&gt;&lt;br style=&quot;border-color: rgb(0, 0, 0); font-family: Helvetica; font-size: 12px; font-style: normal; font-variant-ligatures: normal; font-variant-caps: normal; font-weight: 400; letter-spacing: normal; orphans: 2; text-align: center; text-indent: 0px; text-transform: none; widows: 2; word-spacing: 0px; -webkit-text-stroke-width: 0px; text-decoration-thickness: initial; text-decoration-style: initial; text-decoration-color: initial;&quot;&gt;&lt;span style=&quot;font-family: Helvetica; font-size: 12px; font-style: normal; font-variant-ligatures: normal; font-variant-caps: normal; font-weight: 400; letter-spacing: normal; orphans: 2; text-align: center; text-indent: 0px; text-transform: none; widows: 2; word-spacing: 0px; -webkit-text-stroke-width: 0px; text-decoration-thickness: initial; text-decoration-style: initial; text-decoration-color: initial; float: none; display: inline !important;&quot;&gt;6 x 4&lt;/span&gt;" style="rounded=0;whiteSpace=wrap;html=1;fillColor=#CC99FF;fontColor=#000000;strokeColor=#000000;labelBackgroundColor=none;" parent="1" vertex="1">
          <mxGeometry x="40" y="320" width="160" height="40" as="geometry" />
        </mxCell>
        <mxCell id="bkhKXYJbMKSQ_BPkJ9Bf-8" value="&lt;span style=&quot;font-family: Helvetica; font-size: 12px; font-style: normal; font-variant-ligatures: normal; font-variant-caps: normal; font-weight: 400; letter-spacing: normal; orphans: 2; text-align: center; text-indent: 0px; text-transform: none; widows: 2; word-spacing: 0px; -webkit-text-stroke-width: 0px; text-decoration-thickness: initial; text-decoration-style: initial; text-decoration-color: initial; float: none; display: inline !important;&quot;&gt;P_EGS_OP_EG_LEVELS&lt;/span&gt;&lt;br style=&quot;border-color: rgb(0, 0, 0); font-family: Helvetica; font-size: 12px; font-style: normal; font-variant-ligatures: normal; font-variant-caps: normal; font-weight: 400; letter-spacing: normal; orphans: 2; text-align: center; text-indent: 0px; text-transform: none; widows: 2; word-spacing: 0px; -webkit-text-stroke-width: 0px; text-decoration-thickness: initial; text-decoration-style: initial; text-decoration-color: initial;&quot;&gt;&lt;span style=&quot;font-family: Helvetica; font-size: 12px; font-style: normal; font-variant-ligatures: normal; font-variant-caps: normal; font-weight: 400; letter-spacing: normal; orphans: 2; text-align: center; text-indent: 0px; text-transform: none; widows: 2; word-spacing: 0px; -webkit-text-stroke-width: 0px; text-decoration-thickness: initial; text-decoration-style: initial; text-decoration-color: initial; float: none; display: inline !important;&quot;&gt;6 x 4&lt;/span&gt;" style="rounded=0;whiteSpace=wrap;html=1;fillColor=#CC99FF;fontColor=#000000;strokeColor=#000000;labelBackgroundColor=none;" parent="1" vertex="1">
          <mxGeometry x="40" y="220" width="160" height="40" as="geometry" />
        </mxCell>
        <mxCell id="bkhKXYJbMKSQ_BPkJ9Bf-74" style="edgeStyle=orthogonalEdgeStyle;rounded=0;orthogonalLoop=1;jettySize=auto;html=1;exitX=0.5;exitY=1;exitDx=0;exitDy=0;entryX=0.5;entryY=0;entryDx=0;entryDy=0;strokeColor=#990000;endArrow=none;endFill=0;fontColor=#000000;labelBackgroundColor=none;" parent="1" source="bkhKXYJbMKSQ_BPkJ9Bf-64" target="bkhKXYJbMKSQ_BPkJ9Bf-42" edge="1">
          <mxGeometry relative="1" as="geometry">
            <mxPoint x="199.2" y="340" as="sourcePoint" />
            <mxPoint x="199.2" y="710" as="targetPoint" />
            <Array as="points">
              <mxPoint x="120" y="540" />
              <mxPoint x="120" y="540" />
            </Array>
          </mxGeometry>
        </mxCell>
        <mxCell id="bkhKXYJbMKSQ_BPkJ9Bf-99" style="edgeStyle=orthogonalEdgeStyle;rounded=0;orthogonalLoop=1;jettySize=auto;html=1;exitX=1;exitY=0.5;exitDx=0;exitDy=0;entryX=0;entryY=0.5;entryDx=0;entryDy=0;strokeColor=#000000;fontColor=#000000;labelBackgroundColor=none;" parent="1" source="bkhKXYJbMKSQ_BPkJ9Bf-76" target="bkhKXYJbMKSQ_BPkJ9Bf-38" edge="1">
          <mxGeometry relative="1" as="geometry" />
        </mxCell>
        <mxCell id="bkhKXYJbMKSQ_BPkJ9Bf-76" value="EG_LEVEL&lt;br&gt;16 x 6" style="rounded=0;whiteSpace=wrap;html=1;fillColor=#FFCC99;fontColor=#000000;strokeColor=#000000;labelBackgroundColor=none;" parent="1" vertex="1">
          <mxGeometry x="670" y="295" width="90" height="60" as="geometry" />
        </mxCell>
        <mxCell id="bkhKXYJbMKSQ_BPkJ9Bf-78" value="" style="edgeStyle=orthogonalEdgeStyle;rounded=0;orthogonalLoop=1;jettySize=auto;html=1;entryX=0;entryY=0.5;entryDx=0;entryDy=0;startArrow=block;startFill=1;strokeWidth=2;endArrow=block;endFill=1;strokeColor=#000000;fontColor=#000000;labelBackgroundColor=none;" parent="1" source="bkhKXYJbMKSQ_BPkJ9Bf-23" target="bkhKXYJbMKSQ_BPkJ9Bf-76" edge="1">
          <mxGeometry relative="1" as="geometry">
            <mxPoint x="770" y="335" as="sourcePoint" />
            <mxPoint x="810" y="335" as="targetPoint" />
            <Array as="points">
              <mxPoint x="660" y="325" />
              <mxPoint x="660" y="325" />
            </Array>
          </mxGeometry>
        </mxCell>
        <mxCell id="bkhKXYJbMKSQ_BPkJ9Bf-79" style="edgeStyle=orthogonalEdgeStyle;rounded=0;orthogonalLoop=1;jettySize=auto;html=1;entryX=0.25;entryY=0;entryDx=0;entryDy=0;exitX=0.75;exitY=1;exitDx=0;exitDy=0;startArrow=block;startFill=1;strokeWidth=2;strokeColor=#000000;fontColor=#000000;labelBackgroundColor=none;endArrow=block;endFill=1;" parent="1" source="bkhKXYJbMKSQ_BPkJ9Bf-7" target="bkhKXYJbMKSQ_BPkJ9Bf-23" edge="1">
          <mxGeometry relative="1" as="geometry">
            <mxPoint x="288" y="170" as="sourcePoint" />
            <mxPoint x="288" y="321" as="targetPoint" />
            <Array as="points">
              <mxPoint x="300" y="190" />
              <mxPoint x="540" y="190" />
            </Array>
          </mxGeometry>
        </mxCell>
        <mxCell id="bkhKXYJbMKSQ_BPkJ9Bf-80" style="edgeStyle=orthogonalEdgeStyle;rounded=0;orthogonalLoop=1;jettySize=auto;html=1;entryX=0.5;entryY=0;entryDx=0;entryDy=0;strokeColor=#990000;endArrow=none;endFill=0;fontColor=#000000;labelBackgroundColor=none;startArrow=none;startFill=0;" parent="1" target="bkhKXYJbMKSQ_BPkJ9Bf-55" edge="1">
          <mxGeometry relative="1" as="geometry">
            <mxPoint x="120" y="630" as="sourcePoint" />
            <mxPoint x="130" y="660" as="targetPoint" />
            <Array as="points">
              <mxPoint x="120" y="650" />
              <mxPoint x="120" y="650" />
            </Array>
          </mxGeometry>
        </mxCell>
        <mxCell id="bkhKXYJbMKSQ_BPkJ9Bf-47" value="&lt;span style=&quot;font-family: Helvetica; font-size: 12px; font-style: normal; font-variant-ligatures: normal; font-variant-caps: normal; font-weight: 400; letter-spacing: normal; orphans: 2; text-align: center; text-indent: 0px; text-transform: none; widows: 2; word-spacing: 0px; -webkit-text-stroke-width: 0px; text-decoration-thickness: initial; text-decoration-style: initial; text-decoration-color: initial; float: none; display: inline !important;&quot;&gt;P_EGS_OP_PITCH&lt;/span&gt;&lt;br style=&quot;border-color: rgb(0, 0, 0); font-family: Helvetica; font-size: 12px; font-style: normal; font-variant-ligatures: normal; font-variant-caps: normal; font-weight: 400; letter-spacing: normal; orphans: 2; text-align: center; text-indent: 0px; text-transform: none; widows: 2; word-spacing: 0px; -webkit-text-stroke-width: 0px; text-decoration-thickness: initial; text-decoration-style: initial; text-decoration-color: initial;&quot;&gt;&lt;font&gt;x 6&lt;/font&gt;" style="rounded=0;whiteSpace=wrap;html=1;fillColor=#CC99FF;fontColor=#000000;strokeColor=#000000;labelBackgroundColor=none;" parent="1" vertex="1">
          <mxGeometry x="40" y="650" width="160" height="40" as="geometry" />
        </mxCell>
        <mxCell id="bkhKXYJbMKSQ_BPkJ9Bf-84" style="edgeStyle=orthogonalEdgeStyle;rounded=0;orthogonalLoop=1;jettySize=auto;html=1;exitX=0.5;exitY=1;exitDx=0;exitDy=0;entryX=0.25;entryY=0;entryDx=0;entryDy=0;strokeColor=#990000;fontColor=#000000;labelBackgroundColor=none;endArrow=none;endFill=0;startArrow=none;startFill=0;" parent="1" source="bkhKXYJbMKSQ_BPkJ9Bf-81" target="bkhKXYJbMKSQ_BPkJ9Bf-76" edge="1">
          <mxGeometry relative="1" as="geometry" />
        </mxCell>
        <mxCell id="bkhKXYJbMKSQ_BPkJ9Bf-81" value="&lt;p style=&quot;line-height: 110%;&quot;&gt;&lt;font style=&quot;font-size: 8px;&quot;&gt;OPERATOR (6-1)&lt;/font&gt;&lt;/p&gt;" style="shape=hexagon;perimeter=hexagonPerimeter2;whiteSpace=wrap;html=1;fixedSize=1;size=10;strokeColor=#000000;fontColor=#000000;labelBackgroundColor=none;fillColor=#CCFF99;" parent="1" vertex="1">
          <mxGeometry x="610" y="230.01" width="90" height="20" as="geometry" />
        </mxCell>
        <mxCell id="Uc1V2ZWnSnzchSxw7sYp-6" style="edgeStyle=orthogonalEdgeStyle;rounded=0;orthogonalLoop=1;jettySize=auto;html=1;exitX=0.5;exitY=1;exitDx=0;exitDy=0;entryX=0.664;entryY=0.011;entryDx=0;entryDy=0;entryPerimeter=0;endArrow=none;endFill=0;strokeColor=#990000;" parent="1" source="bkhKXYJbMKSQ_BPkJ9Bf-82" target="bkhKXYJbMKSQ_BPkJ9Bf-76" edge="1">
          <mxGeometry relative="1" as="geometry" />
        </mxCell>
        <mxCell id="bkhKXYJbMKSQ_BPkJ9Bf-82" value="&lt;p style=&quot;line-height: 110%;&quot;&gt;&lt;font style=&quot;font-size: 8px;&quot;&gt;VOICE (1-16)&lt;/font&gt;&lt;/p&gt;" style="shape=hexagon;perimeter=hexagonPerimeter2;whiteSpace=wrap;html=1;fixedSize=1;size=10;strokeColor=#000000;fontColor=#000000;labelBackgroundColor=none;fillColor=#FFFF99;" parent="1" vertex="1">
          <mxGeometry x="690" y="180" width="80" height="20" as="geometry" />
        </mxCell>
        <mxCell id="bkhKXYJbMKSQ_BPkJ9Bf-88" value="&lt;p style=&quot;line-height: 103%;&quot;&gt;&lt;font style=&quot;font-size: 16px;&quot;&gt;EC[12]&lt;/font&gt;&lt;/p&gt;" style="shape=hexagon;perimeter=hexagonPerimeter2;whiteSpace=wrap;html=1;fixedSize=1;size=10;fillColor=#FFFF99;fontColor=#000000;strokeColor=#000000;labelBackgroundColor=none;" parent="1" vertex="1">
          <mxGeometry x="920" y="310" width="110" height="30" as="geometry" />
        </mxCell>
        <mxCell id="bkhKXYJbMKSQ_BPkJ9Bf-89" value="&lt;p style=&quot;line-height: 103%;&quot;&gt;&lt;font style=&quot;font-size: 16px;&quot;&gt;F[14]&lt;/font&gt;&lt;/p&gt;" style="shape=hexagon;perimeter=hexagonPerimeter2;whiteSpace=wrap;html=1;fixedSize=1;size=10;fillColor=#FFFF99;fontColor=#000000;strokeColor=#000000;labelBackgroundColor=none;" parent="1" vertex="1">
          <mxGeometry x="600" y="655" width="110" height="30" as="geometry" />
        </mxCell>
        <mxCell id="bkhKXYJbMKSQ_BPkJ9Bf-90" value="&lt;p style=&quot;line-height: 103%;&quot;&gt;&lt;font style=&quot;font-size: 16px;&quot;&gt;KON&lt;/font&gt;&lt;/p&gt;" style="shape=hexagon;perimeter=hexagonPerimeter2;whiteSpace=wrap;html=1;fixedSize=1;size=10;fillColor=#FFFF99;fontColor=#000000;strokeColor=#000000;labelBackgroundColor=none;" parent="1" vertex="1">
          <mxGeometry x="890" y="140" width="110" height="30" as="geometry" />
        </mxCell>
        <mxCell id="bkhKXYJbMKSQ_BPkJ9Bf-91" value="Shift&lt;br&gt;Register" style="rounded=0;whiteSpace=wrap;html=1;fillColor=#fa6800;fontColor=#000000;strokeColor=#000000;labelBackgroundColor=none;" parent="1" vertex="1">
          <mxGeometry x="540" y="135" width="100" height="40" as="geometry" />
        </mxCell>
        <mxCell id="bkhKXYJbMKSQ_BPkJ9Bf-92" value="&lt;font style=&quot;font-size: 8px;&quot;&gt;[1]&lt;/font&gt;" style="edgeStyle=orthogonalEdgeStyle;rounded=0;orthogonalLoop=1;jettySize=auto;html=1;exitX=1;exitY=0.5;exitDx=0;exitDy=0;entryX=0;entryY=0.5;entryDx=0;entryDy=0;strokeColor=#000000;fontColor=#000000;labelBackgroundColor=none;" parent="1" source="bkhKXYJbMKSQ_BPkJ9Bf-91" target="bkhKXYJbMKSQ_BPkJ9Bf-90" edge="1">
          <mxGeometry x="0.25" y="15" relative="1" as="geometry">
            <mxPoint x="741" y="306" as="targetPoint" />
            <mxPoint x="740" y="210" as="sourcePoint" />
            <Array as="points">
              <mxPoint x="660" y="155" />
              <mxPoint x="660" y="155" />
            </Array>
            <mxPoint as="offset" />
          </mxGeometry>
        </mxCell>
        <mxCell id="bkhKXYJbMKSQ_BPkJ9Bf-97" value="" style="edgeStyle=orthogonalEdgeStyle;rounded=0;orthogonalLoop=1;jettySize=auto;html=1;endArrow=none;endFill=0;strokeColor=#000000;fontColor=#000000;labelBackgroundColor=none;" parent="1" source="bkhKXYJbMKSQ_BPkJ9Bf-61" target="bkhKXYJbMKSQ_BPkJ9Bf-96" edge="1">
          <mxGeometry x="-0.0769" y="10" relative="1" as="geometry">
            <mxPoint x="400" y="573" as="sourcePoint" />
            <mxPoint x="400" y="650" as="targetPoint" />
            <Array as="points" />
            <mxPoint as="offset" />
          </mxGeometry>
        </mxCell>
        <mxCell id="bkhKXYJbMKSQ_BPkJ9Bf-96" value="" style="triangle;whiteSpace=wrap;html=1;rotation=90;strokeColor=#000000;fontColor=#000000;labelBackgroundColor=none;fillColor=#FFFFFF;" parent="1" vertex="1">
          <mxGeometry x="383.5" y="590" width="33" height="39" as="geometry" />
        </mxCell>
        <mxCell id="bkhKXYJbMKSQ_BPkJ9Bf-98" value="Is Ratio &lt;font style=&quot;font-size: 8px;&quot;&gt;[1]&amp;nbsp;&lt;/font&gt;" style="edgeStyle=orthogonalEdgeStyle;rounded=0;orthogonalLoop=1;jettySize=auto;html=1;exitX=1;exitY=0.25;exitDx=0;exitDy=0;entryX=0.5;entryY=1;entryDx=0;entryDy=0;endArrow=none;endFill=0;strokeColor=#990000;fontColor=#000000;labelBackgroundColor=none;" parent="1" source="bkhKXYJbMKSQ_BPkJ9Bf-47" target="bkhKXYJbMKSQ_BPkJ9Bf-96" edge="1">
          <mxGeometry x="0.4568" y="10" relative="1" as="geometry">
            <mxPoint x="210" y="750" as="sourcePoint" />
            <mxPoint x="380" y="700" as="targetPoint" />
            <Array as="points">
              <mxPoint x="240" y="660" />
              <mxPoint x="240" y="610" />
            </Array>
            <mxPoint as="offset" />
          </mxGeometry>
        </mxCell>
        <mxCell id="Uc1V2ZWnSnzchSxw7sYp-3" style="edgeStyle=orthogonalEdgeStyle;rounded=0;orthogonalLoop=1;jettySize=auto;html=1;exitX=0.5;exitY=1;exitDx=0;exitDy=0;" parent="1" source="bkhKXYJbMKSQ_BPkJ9Bf-1" target="bkhKXYJbMKSQ_BPkJ9Bf-1" edge="1">
          <mxGeometry relative="1" as="geometry" />
        </mxCell>
        <mxCell id="Uc1V2ZWnSnzchSxw7sYp-4" style="edgeStyle=orthogonalEdgeStyle;rounded=0;orthogonalLoop=1;jettySize=auto;html=1;exitX=0.5;exitY=1;exitDx=0;exitDy=0;strokeColor=#990000;fontColor=#000000;labelBackgroundColor=none;endArrow=none;endFill=0;startArrow=none;startFill=0;entryX=0.5;entryY=0;entryDx=0;entryDy=0;" parent="1" source="bkhKXYJbMKSQ_BPkJ9Bf-1" target="bkhKXYJbMKSQ_BPkJ9Bf-7" edge="1">
          <mxGeometry relative="1" as="geometry">
            <mxPoint x="320" y="50" as="sourcePoint" />
            <mxPoint x="320" y="110" as="targetPoint" />
            <Array as="points">
              <mxPoint x="120" y="70" />
              <mxPoint x="280" y="70" />
            </Array>
          </mxGeometry>
        </mxCell>
        <mxCell id="B_mAP0IRxajXwq3ZstFW-4" value="" style="edgeStyle=orthogonalEdgeStyle;rounded=0;orthogonalLoop=1;jettySize=auto;html=1;" edge="1" parent="1" source="B_mAP0IRxajXwq3ZstFW-6" target="bkhKXYJbMKSQ_BPkJ9Bf-89">
          <mxGeometry relative="1" as="geometry" />
        </mxCell>
        <mxCell id="B_mAP0IRxajXwq3ZstFW-3" value="&lt;font color=&quot;#000000&quot;&gt;update at 4,709,760 Hz&lt;/font&gt;" style="rounded=0;whiteSpace=wrap;html=1;strokeColor=#CCFF99;fillColor=#FFFF99;fontStyle=2" vertex="1" parent="1">
          <mxGeometry x="1000" y="580" width="130" height="20" as="geometry" />
        </mxCell>
        <mxCell id="B_mAP0IRxajXwq3ZstFW-5" value="&lt;font color=&quot;#000000&quot;&gt;update at 294,360 Hz&lt;/font&gt;" style="rounded=0;whiteSpace=wrap;html=1;strokeColor=none;fillColor=#CCFF99;fontStyle=2" vertex="1" parent="1">
          <mxGeometry x="1000" y="610" width="130" height="20" as="geometry" />
        </mxCell>
        <mxCell id="B_mAP0IRxajXwq3ZstFW-7" value="" style="edgeStyle=orthogonalEdgeStyle;rounded=0;orthogonalLoop=1;jettySize=auto;html=1;" edge="1" parent="1" source="B_mAP0IRxajXwq3ZstFW-3" target="B_mAP0IRxajXwq3ZstFW-6">
          <mxGeometry relative="1" as="geometry">
            <mxPoint x="1065" y="635" as="sourcePoint" />
            <mxPoint x="945" y="780" as="targetPoint" />
          </mxGeometry>
        </mxCell>
        <mxCell id="B_mAP0IRxajXwq3ZstFW-6" value="&lt;font color=&quot;#000000&quot;&gt;update at patch load&lt;/font&gt;" style="rounded=0;whiteSpace=wrap;html=1;strokeColor=none;fillColor=#CC99FF;fontStyle=2" vertex="1" parent="1">
          <mxGeometry x="1000" y="700" width="130" height="20" as="geometry" />
        </mxCell>
        <mxCell id="B_mAP0IRxajXwq3ZstFW-8" value="&lt;font color=&quot;#000000&quot;&gt;update at 375 Hz&lt;/font&gt;" style="rounded=0;whiteSpace=wrap;html=1;strokeColor=none;fillColor=#99FFFF;fontStyle=2" vertex="1" parent="1">
          <mxGeometry x="1000" y="670" width="130" height="20" as="geometry" />
        </mxCell>
        <mxCell id="B_mAP0IRxajXwq3ZstFW-9" value="&lt;font color=&quot;#000000&quot; style=&quot;font-size: 11px;&quot;&gt;data signal&amp;nbsp;&lt;/font&gt;&lt;font color=&quot;#000000&quot; style=&quot;font-size: 8px;&quot;&gt;[bits]&lt;/font&gt;" style="endArrow=classic;html=1;rounded=0;strokeColor=#000000;labelBackgroundColor=none;" edge="1" parent="1">
          <mxGeometry x="-0.1453" y="10" width="50" height="50" relative="1" as="geometry">
            <mxPoint x="1000" y="560" as="sourcePoint" />
            <mxPoint x="1130" y="560" as="targetPoint" />
            <mxPoint as="offset" />
          </mxGeometry>
        </mxCell>
        <mxCell id="B_mAP0IRxajXwq3ZstFW-10" value="&lt;font color=&quot;#000000&quot;&gt;update at 49,096 Hz&lt;/font&gt;" style="rounded=0;whiteSpace=wrap;html=1;strokeColor=none;fillColor=#FFCC99;fontStyle=2" vertex="1" parent="1">
          <mxGeometry x="1000" y="640" width="130" height="20" as="geometry" />
        </mxCell>
        <mxCell id="B_mAP0IRxajXwq3ZstFW-11" value="&lt;font color=&quot;#990000&quot;&gt;&lt;font style=&quot;font-size: 11px;&quot;&gt;control signal&amp;nbsp;&lt;/font&gt;&lt;font style=&quot;font-size: 8px;&quot;&gt;[bits]&lt;/font&gt;&lt;/font&gt;" style="endArrow=none;html=1;rounded=0;strokeColor=#990000;labelBackgroundColor=none;endFill=0;" edge="1" parent="1">
          <mxGeometry x="-0.1453" y="10" width="50" height="50" relative="1" as="geometry">
            <mxPoint x="1000" y="530" as="sourcePoint" />
            <mxPoint x="1130" y="530" as="targetPoint" />
            <mxPoint as="offset" />
          </mxGeometry>
        </mxCell>
        <mxCell id="bkhKXYJbMKSQ_BPkJ9Bf-15" value="" style="shape=trapezoid;perimeter=trapezoidPerimeter;whiteSpace=wrap;html=1;fixedSize=1;size=22.5;rotation=90;strokeColor=#000000;fontColor=#000000;labelBackgroundColor=none;fillColor=none;" parent="1" vertex="1">
          <mxGeometry x="238.13" y="322.81" width="80" height="34.38" as="geometry" />
        </mxCell>
      </root>
    </mxGraphModel>
  </diagram>
</mxfile>
